<svg id="Capa_1" enable-background="new 0 0 511.948 511.948" height="512" viewBox="0 0 511.948 511.948" width="512" xmlns="http://www.w3.org/2000/svg"><g><g><g><g><path d="m416.628 203.467c-20.364-63.878-80.178-110.147-150.807-110.147-70.209 0-129.729 45.722-150.438 109.01-27.925-1.105-56.212 8.995-77.532 30.315-40.538 40.538-40.538 106.263 0 146.801 38.865 38.865 100.878 40.462 141.654 4.804 24.826 16.185 54.469 25.6 86.316 25.6 27.17 0 52.738-6.85 75.078-18.912 16.895 11.912 37.501 18.912 59.745 18.912 57.329 0 103.804-46.475 103.804-103.804 0-51.894-38.08-94.891-87.82-102.579z" fill="#eaf9fa"/><g fill="#d4f2f6"><path d="m294.718 111.747c0 14.67-11.89 26.57-26.57 26.57-14.67 0-26.57-11.9-26.57-26.57 0-6.68 2.46-12.79 6.53-17.45 5.81-.65 11.72-.98 17.71-.98 7.79 0 15.44.56 22.93 1.65 3.73 4.57 5.97 10.41 5.97 16.78z"/><path d="m398.488 165.267-218.98 218.98c-23.01 20.12-52.78 28.38-81.34 24.77l274.33-274.33c9.9 9.03 18.65 19.31 25.99 30.58z"/><path d="m97.069 225.682c0-13.728 11.129-24.857 24.857-24.857s24.857 11.129 24.857 24.857-11.129 24.857-24.857 24.857-24.857-11.129-24.857-24.857"/><path d="m504.448 306.045c0 54.35-41.76 98.93-94.94 103.42 30.78-18.01 51.45-51.41 51.45-89.65 0-48.872-33.78-89.859-79.266-100.885-5.334-1.293-9.616-5.201-11.584-10.324-22.811-59.366-80.372-101.51-147.779-101.51-8.7 0-17.24.7-25.56 2.06 20.86-10.14 44.29-15.83 69.05-15.83 70.63 0 130.45 46.26 150.81 110.14 49.739 7.689 87.819 50.689 87.819 102.579z"/></g><g><path d="m97.069 200.825c0-13.728 11.129-24.857 24.857-24.857s24.857 11.129 24.857 24.857-11.129 24.857-24.857 24.857-24.857-11.129-24.857-24.857" fill="#64b9fc"/><path d="m109.318 222.245c9.757-2.249 17.027-10.984 17.027-21.423 0-10.428-7.259-19.174-17.016-21.423 3.692-2.181 7.997-3.43 12.597-3.43 13.722 0 24.854 11.132 24.854 24.854 0 13.733-11.132 24.865-24.854 24.865-4.599-.001-8.916-1.25-12.608-3.443" fill="#31a7fb"/></g></g><g><path d="m49.877 459.242-14.142-14.142c-3.905-3.905-3.905-10.237 0-14.142l378.244-378.244c3.905-3.905 10.237-3.905 14.142 0l14.142 14.142c3.905 3.905 3.905 10.237 0 14.142l-378.244 378.244c-3.905 3.906-10.237 3.906-14.142 0z" fill="#70d9e6"/></g></g><g><circle cx="268.151" cy="85.176" fill="#bcea73" r="26.569"/><path d="m294.718 85.173c0 14.679-11.899 26.578-26.566 26.578-4.917 0-9.531-1.336-13.477-3.679 10.43-2.404 18.2-11.741 18.2-22.899 0-11.146-7.759-20.495-18.188-22.899 3.946-2.331 8.548-3.667 13.465-3.667 14.667 0 26.566 11.899 26.566 26.566z" fill="#99d53b"/></g><g><circle cx="109.318" cy="107.677" fill="#bcea73" r="22.501"/><path d="m131.817 107.674c0 12.431-10.077 22.508-22.498 22.508-4.164 0-8.072-1.131-11.413-3.116 8.833-2.036 15.413-9.943 15.413-19.392 0-9.439-6.57-17.357-15.403-19.393 3.342-1.974 7.239-3.105 11.403-3.105 12.422 0 22.498 10.077 22.498 22.498z" fill="#99d53b"/></g></g><g><path d="m484.864 233.273c-16.271-18.813-38.335-31.628-62.539-36.417-6.888-19.659-17.64-38.158-31.355-53.958l56.597-56.597c6.823-6.823 6.823-17.926 0-24.749l-14.142-14.142c-6.824-6.823-17.926-6.823-24.75 0l-60.368 60.368c-14.525-8.355-30.091-14.394-46.405-18.011.203-1.503.318-3.034.318-4.591 0-18.786-15.283-34.069-34.069-34.069s-34.069 15.283-34.069 34.069c0 1.232.07 2.448.198 3.647-15.539 2.994-30.519 8.191-44.608 15.492-3.678 1.906-5.114 6.432-3.209 10.11 1.334 2.575 3.952 4.051 6.665 4.051 1.162 0 2.342-.271 3.444-.842 13.445-6.967 27.782-11.826 42.662-14.473 6.022 9.648 16.73 16.085 28.917 16.085 11.849 0 22.3-6.083 28.406-15.287 14.265 2.951 27.916 7.932 40.723 14.848l-271.929 271.928c-8.127-4.409-15.582-9.977-22.196-16.592-37.549-37.549-37.549-98.646-.001-136.194 13.378-13.378 30.001-22.338 48.335-26.147 4.505 12.455 16.447 21.381 30.437 21.381 17.842 0 32.357-14.515 32.357-32.357 0-12.208-6.798-22.855-16.805-28.364 8.142-13.193 18.226-25.009 30.053-35.19 3.14-2.703 3.494-7.438.791-10.577-2.702-3.139-7.438-3.493-10.576-.791-14.152 12.182-26.036 26.495-35.366 42.577-.152-.002-.302-.011-.455-.011-16.486 0-30.122 12.396-32.1 28.355-21.755 4.232-41.475 14.716-57.278 30.519-43.396 43.397-43.396 114.01 0 157.407 6.585 6.585 13.896 12.271 21.808 16.981l-23.924 23.924c-3.305 3.305-5.125 7.7-5.125 12.375s1.82 9.069 5.125 12.375l14.142 14.142c3.412 3.412 7.893 5.118 12.375 5.118 4.48 0 8.963-1.706 12.375-5.118l47.354-47.354c23.095-1.128 45.351-9.448 63.44-23.704 19.885 12.013 42.403 19.804 65.473 22.616 4.106.504 7.851-2.426 8.353-6.538.501-4.112-2.426-7.851-6.538-8.352-22.97-2.799-44.437-10.621-63.803-23.247-2.813-1.835-6.504-1.574-9.033.637-11.572 10.119-25.418 17.261-40.226 20.922l151.705-151.708c2.929-2.929 2.929-7.678 0-10.606s-7.677-2.929-10.607 0l-216.726 216.725c-.975.975-2.561.975-3.535 0l-14.142-14.142c-.976-.975-.976-2.561 0-3.536l378.245-378.244c.975-.975 2.561-.975 3.535 0l14.142 14.142c.976.975.976 2.561 0 3.536l-135.337 135.337c-2.929 2.929-2.929 7.678 0 10.606 2.93 2.929 7.678 2.928 10.607 0l68.099-68.099c13.053 15.253 23.094 33.199 29.154 52.206.864 2.71 3.188 4.699 6 5.134 22.466 3.472 43.077 14.91 58.035 32.206 15.108 17.47 23.43 39.83 23.43 62.96 0 53.102-43.202 96.304-96.304 96.304-19.982 0-39.147-6.065-55.423-17.541-2.326-1.64-5.38-1.823-7.886-.47-16.988 9.173-35.373 14.912-54.643 17.058-4.117.458-7.082 4.167-6.624 8.284.459 4.117 4.179 7.081 8.284 6.624 19.671-2.191 38.506-7.788 56.057-16.65 17.964 11.592 38.688 17.695 60.234 17.695 61.373 0 111.304-49.931 111.304-111.304.001-26.732-9.618-52.576-27.083-72.772zm-216.713-129.028c-10.515 0-19.069-8.555-19.069-19.069s8.555-19.069 19.069-19.069 19.069 8.555 19.069 19.069-8.554 19.069-19.069 19.069zm-146.226 79.223c9.571 0 17.357 7.786 17.357 17.357s-7.786 17.357-17.357 17.357c-9.57 0-17.356-7.786-17.356-17.357s7.786-17.357 17.356-17.357z"/><path d="m323.276 77.116c1.465 1.464 3.385 2.197 5.304 2.197s3.839-.732 5.304-2.197l5.71-5.71 5.71 5.71c1.465 1.464 3.385 2.197 5.304 2.197s3.839-.732 5.304-2.197c2.929-2.929 2.929-7.678 0-10.606l-5.711-5.711 5.711-5.711c2.929-2.929 2.929-7.678 0-10.606-2.93-2.929-7.678-2.929-10.607 0l-5.71 5.71-5.71-5.71c-2.93-2.929-7.678-2.929-10.607 0s-2.929 7.678 0 10.606l5.711 5.711-5.711 5.711c-2.931 2.928-2.931 7.677-.002 10.606z"/><path d="m109.318 137.678c16.543 0 30.001-13.458 30.001-30.001s-13.458-30-30.001-30c-16.542 0-30 13.458-30 30s13.458 30.001 30 30.001zm0-45.002c8.271 0 15.001 6.729 15.001 15s-6.729 15.001-15.001 15.001-15-6.729-15-15.001 6.728-15 15-15z"/><path d="m36.8 180.287c1.465 1.464 3.385 2.197 5.304 2.197s3.839-.732 5.304-2.197l3.995-3.995 3.995 3.995c1.465 1.465 3.384 2.197 5.304 2.197 1.919 0 3.839-.732 5.304-2.197 2.929-2.929 2.929-7.677 0-10.606l-3.995-3.995 3.995-3.995c2.929-2.929 2.929-7.678 0-10.606-2.93-2.929-7.678-2.929-10.607 0l-3.995 3.995-3.995-3.995c-2.929-2.929-7.677-2.93-10.607 0-2.929 2.929-2.929 7.677 0 10.606l3.995 3.995-3.995 3.995c-2.93 2.929-2.93 7.677-.002 10.606z"/></g></g></svg>